<?xml version="1.0" encoding="UTF-8"?>
<svg id="Layer_1" data-name="Layer 1" xmlns="http://www.w3.org/2000/svg" viewBox="0 0 1920 1080">
  <defs>
    <style>
      .cls-1, .cls-2, .cls-3, .cls-4, .cls-5, .cls-6, .cls-7, .cls-8, .cls-9, .cls-10, .cls-11, .cls-12, .cls-13, .cls-14 {
        stroke-miterlimit: 10;
      }

      .cls-1, .cls-2, .cls-3, .cls-5, .cls-7, .cls-9, .cls-10, .cls-13, .cls-14 {
        stroke-linecap: round;
      }

      .cls-1, .cls-2, .cls-4, .cls-8, .cls-13, .cls-14 {
        stroke: #2b4c8c;
      }

      .cls-1, .cls-3, .cls-4, .cls-12, .cls-14 {
        stroke-width: 30px;
      }

      .cls-1, .cls-15 {
        fill: #0000b2;
      }

      .cls-2, .cls-3, .cls-4, .cls-5, .cls-6, .cls-7, .cls-8, .cls-9, .cls-10, .cls-11, .cls-12, .cls-13, .cls-14 {
        fill: none;
      }

      .cls-2, .cls-5 {
        stroke-width: 10px;
      }

      .cls-16 {
        fill: #2b4c8c;
      }

      .cls-3, .cls-5, .cls-6, .cls-7, .cls-10, .cls-11, .cls-12 {
        stroke: #fff;
      }

      .cls-17 {
        fill: #fff;
      }

      .cls-7, .cls-9 {
        stroke-width: 5px;
      }

      .cls-8, .cls-11 {
        stroke-linecap: square;
        stroke-width: 15px;
      }

      .cls-9 {
        stroke: #94d7f2;
      }

      .cls-10, .cls-13 {
        stroke-width: 16px;
      }
    </style>
  </defs>
  <g>
    <g>
      <g>
        <path class="cls-17" d="M952.93,809.43c-72.65,0-140.96-28.29-192.33-79.67s-79.66-119.68-79.66-192.33,28.29-140.96,79.66-192.33,119.68-79.67,192.33-79.67,140.96,28.29,192.33,79.67c51.37,51.37,79.67,119.68,79.67,192.33s-28.29,140.96-79.67,192.33c-51.37,51.37-119.68,79.67-192.33,79.67Z"/>
        <path class="cls-6" d="M952.93,809.43c-72.65,0-140.96-28.29-192.33-79.67s-79.66-119.68-79.66-192.33,28.29-140.96,79.66-192.33,119.68-79.67,192.33-79.67,140.96,28.29,192.33,79.67c51.37,51.37,79.67,119.68,79.67,192.33s-28.29,140.96-79.67,192.33c-51.37,51.37-119.68,79.67-192.33,79.67Z"/>
      </g>
      <path class="cls-11" d="M950.97,802.25c-41.81,0-83.37-10.17-120.2-29.4-35.62-18.6-66.94-45.68-90.55-78.31-6.48-8.95-4.47-21.45,4.48-27.93,8.95-6.48,21.45-4.47,27.93,4.47,41.31,57.08,107.99,91.16,178.35,91.16s141.15-34.93,181.85-91.16c6.48-8.95,18.98-10.95,27.93-4.47,8.95,6.48,10.95,18.98,4.47,27.93-23.5,32.46-55.48,59.57-92.49,78.41-37.67,19.17-79.78,29.3-121.76,29.3Z"/>
      <path class="cls-12" d="M759.98,419.92c-3.84,0-7.73-1.11-11.16-3.41-9.16-6.17-11.58-18.6-5.41-27.76,21.56-32,52.48-59.21,89.42-78.7,37.28-19.66,78.13-30.05,118.14-30.05s83.37,10.16,120.2,29.4c35.62,18.6,66.93,45.68,90.55,78.3,6.48,8.95,4.47,21.45-4.47,27.93-8.95,6.48-21.45,4.47-27.93-4.47-41.31-57.08-107.98-91.15-178.34-91.15s-137.68,36.61-174.38,91.09c-3.86,5.73-10.18,8.83-16.61,8.83Z"/>
      <path class="cls-5" d="M1166.93,678.3c-3.39,0-6.83-.86-9.98-2.68l-164.8-95.15c-14.63-8.45-23.36-23.57-23.36-40.47s8.73-32.02,23.36-40.47l164.8-95.15c9.57-5.52,21.8-2.25,27.32,7.32,5.52,9.57,2.25,21.8-7.32,27.32l-164.8,95.15c-2.93,1.69-3.36,4.38-3.36,5.83s.44,4.14,3.36,5.83l164.8,95.15c9.57,5.52,12.84,17.75,7.32,27.32-3.7,6.42-10.43,10-17.34,10Z"/>
      <path class="cls-7" d="M1191.68,632.45c-2.27,0-4.58-.39-6.84-1.21l-169.53-61.71c-13.65-4.97-22.47-17.56-22.47-32.09s8.82-27.12,22.47-32.09l169.53-61.71c10.38-3.78,21.86,1.57,25.63,11.95,3.78,10.38-1.57,21.86-11.95,25.63l-154.43,56.21,154.43,56.21c10.38,3.78,15.73,15.25,11.95,25.63-2.96,8.12-10.63,13.16-18.8,13.17Z"/>
      <path class="cls-7" d="M1198.45,607.37c-1.71,0-3.46-.22-5.19-.69l-146.91-39.37c-13.12-3.52-21.94-15.01-21.94-28.59,0-13.59,8.82-25.08,21.94-28.6l146.91-39.37c10.67-2.86,21.64,3.47,24.5,14.14s-3.47,21.64-14.14,24.49l-109.44,29.32,109.44,29.32c10.67,2.86,17,13.83,14.14,24.5-2.39,8.93-10.48,14.83-19.31,14.83Z"/>
      <path class="cls-5" d="M736.58,678.3c-6.91,0-13.63-3.59-17.34-10-5.52-9.57-2.25-21.8,7.32-27.32l164.8-95.15c2.93-1.69,3.36-4.38,3.36-5.83s-.44-4.14-3.36-5.83l-164.8-95.15c-9.57-5.52-12.84-17.75-7.32-27.32,5.52-9.57,17.75-12.85,27.32-7.32l164.8,95.15c14.63,8.45,23.36,23.57,23.36,40.47s-8.73,32.02-23.36,40.47l-164.8,95.15c-3.15,1.82-6.59,2.68-9.98,2.68Z"/>
      <path class="cls-7" d="M714.32,635.01c-8.17,0-15.84-5.04-18.8-13.17-3.78-10.38,1.57-21.86,11.95-25.63l154.42-56.21-154.42-56.21c-10.38-3.78-15.73-15.25-11.95-25.63,3.78-10.38,15.26-15.73,25.63-11.95l169.53,61.71c13.65,4.97,22.47,17.56,22.47,32.09s-8.82,27.12-22.47,32.09l-169.53,61.71c-2.26.82-4.57,1.21-6.84,1.21Z"/>
      <path class="cls-7" d="M707.56,607.36c-8.83,0-16.91-5.89-19.31-14.83-2.86-10.67,3.47-21.64,14.14-24.5l109.44-29.32-109.44-29.32c-10.67-2.86-17-13.83-14.14-24.49s13.83-17,24.49-14.14l146.91,39.37c13.12,3.52,21.94,15.01,21.94,28.59s-8.82,25.08-21.94,28.59l-146.91,39.37c-1.73.46-3.48.69-5.19.69Z"/>
      <path class="cls-3" d="M983.72,270.57h-65.49c-11.05,0-20-8.95-20-20s8.95-20,20-20h65.49c11.05,0,20,8.95,20,20s-8.95,20-20,20Z"/>
      <path class="cls-12" d="M950.97,320c-11.05,0-20-8.95-20-20v-35.85c0-11.05,8.95-20,20-20s20,8.95,20,20v35.85c0,11.05-8.95,20-20,20Z"/>
      <g>
        <path class="cls-16" d="M950.98,785.08c-51.76,0-101.25-16.12-143.12-46.61-5.4-3.93-8.48-10.3-8.21-16.98.27-6.68,3.86-12.78,9.56-16.26l93.01-56.77c10.99-6.71,17.82-18.88,17.82-31.76v-71.1c0-9.32-5.01-18.01-13.09-22.67l-57.84-33.4c-6.5-3.75-10.35-10.83-9.97-18.33s4.92-14.15,11.77-17.23c8.54-3.84,17.57-5.71,27.61-5.71,13.59,0,26.56,3.47,39.1,6.83,11.51,3.08,22.39,5.99,32.68,5.99s21.2-2.92,32.76-6c12.61-3.37,25.65-6.85,39.29-6.85,10.05,0,19.07,1.86,27.59,5.69,6.85,3.08,11.4,9.73,11.78,17.23.38,7.5-3.47,14.58-9.97,18.33l-57.84,33.39c-8.07,4.66-13.09,13.35-13.09,22.67v69.44c0,13.38,7.23,25.79,18.87,32.38l96.41,54.6c5.85,3.31,9.64,9.34,10.1,16.05s-2.49,13.19-7.83,17.27c-42.75,32.57-93.72,49.79-147.38,49.79Z"/>
        <path class="cls-6" d="M950.98,785.08c-51.76,0-101.25-16.12-143.12-46.61-5.4-3.93-8.48-10.3-8.21-16.98.27-6.68,3.86-12.78,9.56-16.26l93.01-56.77c10.99-6.71,17.82-18.88,17.82-31.76v-71.1c0-9.32-5.01-18.01-13.09-22.67l-57.84-33.4c-6.5-3.75-10.35-10.83-9.97-18.33s4.92-14.15,11.77-17.23c8.54-3.84,17.57-5.71,27.61-5.71,13.59,0,26.56,3.47,39.1,6.83,11.51,3.08,22.39,5.99,32.68,5.99s21.2-2.92,32.76-6c12.61-3.37,25.65-6.85,39.29-6.85,10.05,0,19.07,1.86,27.59,5.69,6.85,3.08,11.4,9.73,11.78,17.23.38,7.5-3.47,14.58-9.97,18.33l-57.84,33.39c-8.07,4.66-13.09,13.35-13.09,22.67v69.44c0,13.38,7.23,25.79,18.87,32.38l96.41,54.6c5.85,3.31,9.64,9.34,10.1,16.05s-2.49,13.19-7.83,17.27c-42.75,32.57-93.72,49.79-147.38,49.79Z"/>
      </g>
      <g>
        <path class="cls-15" d="M818.47,350.61c-6.91,0-13.63-3.59-17.34-10l-8.93-15.47c-5.52-9.57-2.25-21.8,7.32-27.32,9.57-5.52,21.8-2.25,27.32,7.32l8.93,15.47c5.52,9.57,2.25,21.8-7.32,27.32-3.15,1.82-6.59,2.68-9.98,2.68Z"/>
        <path class="cls-3" d="M818.47,350.61c-6.91,0-13.63-3.59-17.34-10l-8.93-15.47c-5.52-9.57-2.25-21.8,7.32-27.32,9.57-5.52,21.8-2.25,27.32,7.32l8.93,15.47c5.52,9.57,2.25,21.8-7.32,27.32-3.15,1.82-6.59,2.68-9.98,2.68Z"/>
      </g>
      <path class="cls-10" d="M950.97,349.71c-11.05,0-20-8.95-20-20v-29.71c0-11.05,8.95-20,20-20s20,8.95,20,20v29.71c0,11.05-8.95,20-20,20Z"/>
      <path class="cls-10" d="M1016.71,362.08c-1.71,0-3.46-.22-5.19-.69-10.67-2.86-17-13.83-14.14-24.49l8.07-30.11c2.86-10.67,13.83-17,24.49-14.14,10.67,2.86,17,13.83,14.14,24.49l-8.07,30.11c-2.39,8.94-10.48,14.83-19.31,14.83Z"/>
      <path class="cls-10" d="M1076.37,390.14c-3.39,0-6.83-.86-9.98-2.68-9.57-5.52-12.84-17.75-7.32-27.32l14.51-25.14c5.52-9.57,17.75-12.84,27.32-7.32,9.57,5.52,12.84,17.75,7.32,27.32l-14.51,25.14c-3.7,6.42-10.43,10-17.34,10Z"/>
      <path class="cls-10" d="M885.24,362.08c-8.83,0-16.91-5.89-19.31-14.83l-7.41-27.65c-2.86-10.67,3.47-21.64,14.14-24.49,10.67-2.86,21.64,3.47,24.49,14.14l7.41,27.65c2.86,10.67-3.47,21.64-14.14,24.49-1.73.46-3.48.69-5.19.69Z"/>
      <path class="cls-10" d="M827.18,392.29c-6.75,0-13.34-3.42-17.11-9.61l-14.37-23.64c-5.74-9.44-2.74-21.74,6.7-27.48,9.44-5.74,21.74-2.74,27.48,6.7l14.37,23.64c5.74,9.44,2.74,21.74-6.7,27.48-3.25,1.97-6.83,2.91-10.37,2.91Z"/>
    </g>
    <g>
      <g>
        <path class="cls-17" d="M952.93,809.43c-72.65,0-140.96-28.29-192.33-79.67s-79.66-119.68-79.66-192.33,28.29-140.96,79.66-192.33,119.68-79.67,192.33-79.67,140.96,28.29,192.33,79.67c51.37,51.37,79.67,119.68,79.67,192.33s-28.29,140.96-79.67,192.33c-51.37,51.37-119.68,79.67-192.33,79.67Z"/>
        <path class="cls-17" d="M952.93,809.43c-72.65,0-140.96-28.29-192.33-79.67s-79.66-119.68-79.66-192.33,28.29-140.96,79.66-192.33,119.68-79.67,192.33-79.67,140.96,28.29,192.33,79.67c51.37,51.37,79.67,119.68,79.67,192.33s-28.29,140.96-79.67,192.33c-51.37,51.37-119.68,79.67-192.33,79.67Z"/>
      </g>
      <g>
        <path class="cls-17" d="M950.97,802.25c-41.81,0-83.37-10.17-120.2-29.4-35.62-18.6-66.94-45.68-90.55-78.31-6.48-8.95-4.47-21.45,4.48-27.93,8.95-6.48,21.45-4.47,27.93,4.47,41.31,57.08,107.99,91.16,178.35,91.16s141.15-34.93,181.85-91.16c6.48-8.95,18.98-10.95,27.93-4.47,8.95,6.48,10.95,18.98,4.47,27.93-23.5,32.46-55.48,59.57-92.49,78.41-37.67,19.17-79.78,29.3-121.76,29.3Z"/>
        <path class="cls-17" d="M950.97,802.25c-41.81,0-83.37-10.17-120.2-29.4-35.62-18.6-66.94-45.68-90.55-78.31-6.48-8.95-4.47-21.45,4.48-27.93,8.95-6.48,21.45-4.47,27.93,4.47,41.31,57.08,107.99,91.16,178.35,91.16s141.15-34.93,181.85-91.16c6.48-8.95,18.98-10.95,27.93-4.47,8.95,6.48,10.95,18.98,4.47,27.93-23.5,32.46-55.48,59.57-92.49,78.41-37.67,19.17-79.78,29.3-121.76,29.3Z"/>
      </g>
      <g>
        <path class="cls-17" d="M759.98,419.92c-3.84,0-7.73-1.11-11.16-3.41-9.16-6.17-11.58-18.6-5.41-27.76,21.56-32,52.48-59.21,89.42-78.7,37.28-19.66,78.13-30.05,118.14-30.05s83.37,10.16,120.2,29.4c35.62,18.6,66.93,45.68,90.55,78.3,6.48,8.95,4.47,21.45-4.47,27.93-8.95,6.48-21.45,4.47-27.93-4.47-41.31-57.08-107.98-91.15-178.34-91.15s-137.68,36.61-174.38,91.09c-3.86,5.73-10.18,8.83-16.61,8.83Z"/>
        <path class="cls-17" d="M759.98,419.92c-3.84,0-7.73-1.11-11.16-3.41-9.16-6.17-11.58-18.6-5.41-27.76,21.56-32,52.48-59.21,89.42-78.7,37.28-19.66,78.13-30.05,118.14-30.05s83.37,10.16,120.2,29.4c35.62,18.6,66.93,45.68,90.55,78.3,6.48,8.95,4.47,21.45-4.47,27.93-8.95,6.48-21.45,4.47-27.93-4.47-41.31-57.08-107.98-91.15-178.34-91.15s-137.68,36.61-174.38,91.09c-3.86,5.73-10.18,8.83-16.61,8.83Z"/>
      </g>
      <g>
        <path class="cls-17" d="M1166.93,678.3c-3.39,0-6.83-.86-9.98-2.68l-164.8-95.15c-14.63-8.45-23.36-23.57-23.36-40.47s8.73-32.02,23.36-40.47l164.8-95.15c9.57-5.52,21.8-2.25,27.32,7.32,5.52,9.57,2.25,21.8-7.32,27.32l-164.8,95.15c-2.93,1.69-3.36,4.38-3.36,5.83s.44,4.14,3.36,5.83l164.8,95.15c9.57,5.52,12.84,17.75,7.32,27.32-3.7,6.42-10.43,10-17.34,10Z"/>
        <path class="cls-17" d="M1166.93,678.3c-3.39,0-6.83-.86-9.98-2.68l-164.8-95.15c-14.63-8.45-23.36-23.57-23.36-40.47s8.73-32.02,23.36-40.47l164.8-95.15c9.57-5.52,21.8-2.25,27.32,7.32,5.52,9.57,2.25,21.8-7.32,27.32l-164.8,95.15c-2.93,1.69-3.36,4.38-3.36,5.83s.44,4.14,3.36,5.83l164.8,95.15c9.57,5.52,12.84,17.75,7.32,27.32-3.7,6.42-10.43,10-17.34,10Z"/>
      </g>
      <g>
        <path class="cls-17" d="M1191.68,632.45c-2.27,0-4.58-.39-6.84-1.21l-169.53-61.71c-13.65-4.97-22.47-17.56-22.47-32.09s8.82-27.12,22.47-32.09l169.53-61.71c10.38-3.78,21.86,1.57,25.63,11.95,3.78,10.38-1.57,21.86-11.95,25.63l-154.43,56.21,154.43,56.21c10.38,3.78,15.73,15.25,11.95,25.63-2.96,8.12-10.63,13.16-18.8,13.17Z"/>
        <path class="cls-17" d="M1191.68,632.45c-2.27,0-4.58-.39-6.84-1.21l-169.53-61.71c-13.65-4.97-22.47-17.56-22.47-32.09s8.82-27.12,22.47-32.09l169.53-61.71c10.38-3.78,21.86,1.57,25.63,11.95,3.78,10.38-1.57,21.86-11.95,25.63l-154.43,56.21,154.43,56.21c10.38,3.78,15.73,15.25,11.95,25.63-2.96,8.12-10.63,13.16-18.8,13.17Z"/>
      </g>
      <g>
        <path class="cls-17" d="M1198.45,607.37c-1.71,0-3.46-.22-5.19-.69l-146.91-39.37c-13.12-3.52-21.94-15.01-21.94-28.59,0-13.59,8.82-25.08,21.94-28.6l146.91-39.37c10.67-2.86,21.64,3.47,24.5,14.14s-3.47,21.64-14.14,24.49l-109.44,29.32,109.44,29.32c10.67,2.86,17,13.83,14.14,24.5-2.39,8.93-10.48,14.83-19.31,14.83Z"/>
        <path class="cls-17" d="M1198.45,607.37c-1.71,0-3.46-.22-5.19-.69l-146.91-39.37c-13.12-3.52-21.94-15.01-21.94-28.59,0-13.59,8.82-25.08,21.94-28.6l146.91-39.37c10.67-2.86,21.64,3.47,24.5,14.14s-3.47,21.64-14.14,24.49l-109.44,29.32,109.44,29.32c10.67,2.86,17,13.83,14.14,24.5-2.39,8.93-10.48,14.83-19.31,14.83Z"/>
      </g>
      <g>
        <path class="cls-17" d="M736.58,678.3c-6.91,0-13.63-3.59-17.34-10-5.52-9.57-2.25-21.8,7.32-27.32l164.8-95.15c2.93-1.69,3.36-4.38,3.36-5.83s-.44-4.14-3.36-5.83l-164.8-95.15c-9.57-5.52-12.84-17.75-7.32-27.32,5.52-9.57,17.75-12.85,27.32-7.32l164.8,95.15c14.63,8.45,23.36,23.57,23.36,40.47s-8.73,32.02-23.36,40.47l-164.8,95.15c-3.15,1.82-6.59,2.68-9.98,2.68Z"/>
        <path class="cls-17" d="M736.58,678.3c-6.91,0-13.63-3.59-17.34-10-5.52-9.57-2.25-21.8,7.32-27.32l164.8-95.15c2.93-1.69,3.36-4.38,3.36-5.83s-.44-4.14-3.36-5.83l-164.8-95.15c-9.57-5.52-12.84-17.75-7.32-27.32,5.52-9.57,17.75-12.85,27.32-7.32l164.8,95.15c14.63,8.45,23.36,23.57,23.36,40.47s-8.73,32.02-23.36,40.47l-164.8,95.15c-3.15,1.82-6.59,2.68-9.98,2.68Z"/>
      </g>
      <g>
        <path class="cls-17" d="M714.32,635.01c-8.17,0-15.84-5.04-18.8-13.17-3.78-10.38,1.57-21.86,11.95-25.63l154.42-56.21-154.42-56.21c-10.38-3.78-15.73-15.25-11.95-25.63,3.78-10.38,15.26-15.73,25.63-11.95l169.53,61.71c13.65,4.97,22.47,17.56,22.47,32.09s-8.82,27.12-22.47,32.09l-169.53,61.71c-2.26.82-4.57,1.21-6.84,1.21Z"/>
        <path class="cls-17" d="M714.32,635.01c-8.17,0-15.84-5.04-18.8-13.17-3.78-10.38,1.57-21.86,11.95-25.63l154.42-56.21-154.42-56.21c-10.38-3.78-15.73-15.25-11.95-25.63,3.78-10.38,15.26-15.73,25.63-11.95l169.53,61.71c13.65,4.97,22.47,17.56,22.47,32.09s-8.82,27.12-22.47,32.09l-169.53,61.71c-2.26.82-4.57,1.21-6.84,1.21Z"/>
      </g>
      <g>
        <path class="cls-17" d="M707.56,607.36c-8.83,0-16.91-5.89-19.31-14.83-2.86-10.67,3.47-21.64,14.14-24.5l109.44-29.32-109.44-29.32c-10.67-2.86-17-13.83-14.14-24.49s13.83-17,24.49-14.14l146.91,39.37c13.12,3.52,21.94,15.01,21.94,28.59s-8.82,25.08-21.94,28.59l-146.91,39.37c-1.73.46-3.48.69-5.19.69Z"/>
        <path class="cls-17" d="M707.56,607.36c-8.83,0-16.91-5.89-19.31-14.83-2.86-10.67,3.47-21.64,14.14-24.5l109.44-29.32-109.44-29.32c-10.67-2.86-17-13.83-14.14-24.49s13.83-17,24.49-14.14l146.91,39.37c13.12,3.52,21.94,15.01,21.94,28.59s-8.82,25.08-21.94,28.59l-146.91,39.37c-1.73.46-3.48.69-5.19.69Z"/>
      </g>
      <g>
        <path class="cls-17" d="M983.72,270.57h-65.49c-11.05,0-20-8.95-20-20s8.95-20,20-20h65.49c11.05,0,20,8.95,20,20s-8.95,20-20,20Z"/>
        <path class="cls-17" d="M983.72,270.57h-65.49c-11.05,0-20-8.95-20-20s8.95-20,20-20h65.49c11.05,0,20,8.95,20,20s-8.95,20-20,20Z"/>
      </g>
      <g>
        <path class="cls-17" d="M950.97,320c-11.05,0-20-8.95-20-20v-35.85c0-11.05,8.95-20,20-20s20,8.95,20,20v35.85c0,11.05-8.95,20-20,20Z"/>
        <path class="cls-17" d="M950.97,320c-11.05,0-20-8.95-20-20v-35.85c0-11.05,8.95-20,20-20s20,8.95,20,20v35.85c0,11.05-8.95,20-20,20Z"/>
      </g>
      <g>
        <path class="cls-17" d="M950.98,785.08c-51.76,0-101.25-16.12-143.12-46.61-5.4-3.93-8.48-10.3-8.21-16.98.27-6.68,3.86-12.78,9.56-16.26l93.01-56.77c10.99-6.71,17.82-18.88,17.82-31.76v-71.1c0-9.32-5.01-18.01-13.09-22.67l-57.84-33.4c-6.5-3.75-10.35-10.83-9.97-18.33s4.92-14.15,11.77-17.23c8.54-3.84,17.57-5.71,27.61-5.71,13.59,0,26.56,3.47,39.1,6.83,11.51,3.08,22.39,5.99,32.68,5.99s21.2-2.92,32.76-6c12.61-3.37,25.65-6.85,39.29-6.85,10.05,0,19.07,1.86,27.59,5.69,6.85,3.08,11.4,9.73,11.78,17.23.38,7.5-3.47,14.58-9.97,18.33l-57.84,33.39c-8.07,4.66-13.09,13.35-13.09,22.67v69.44c0,13.38,7.23,25.79,18.87,32.38l96.41,54.6c5.85,3.31,9.64,9.34,10.1,16.05s-2.49,13.19-7.83,17.27c-42.75,32.57-93.72,49.79-147.38,49.79Z"/>
        <path class="cls-17" d="M950.98,785.08c-51.76,0-101.25-16.12-143.12-46.61-5.4-3.93-8.48-10.3-8.21-16.98.27-6.68,3.86-12.78,9.56-16.26l93.01-56.77c10.99-6.71,17.82-18.88,17.82-31.76v-71.1c0-9.32-5.01-18.01-13.09-22.67l-57.84-33.4c-6.5-3.75-10.35-10.83-9.97-18.33s4.92-14.15,11.77-17.23c8.54-3.84,17.57-5.71,27.61-5.71,13.59,0,26.56,3.47,39.1,6.83,11.51,3.08,22.39,5.99,32.68,5.99s21.2-2.92,32.76-6c12.61-3.37,25.65-6.85,39.29-6.85,10.05,0,19.07,1.86,27.59,5.69,6.85,3.08,11.4,9.73,11.78,17.23.38,7.5-3.47,14.58-9.97,18.33l-57.84,33.39c-8.07,4.66-13.09,13.35-13.09,22.67v69.44c0,13.38,7.23,25.79,18.87,32.38l96.41,54.6c5.85,3.31,9.64,9.34,10.1,16.05s-2.49,13.19-7.83,17.27c-42.75,32.57-93.72,49.79-147.38,49.79Z"/>
      </g>
      <g>
        <path class="cls-17" d="M818.47,350.61c-6.91,0-13.63-3.59-17.34-10l-8.93-15.47c-5.52-9.57-2.25-21.8,7.32-27.32,9.57-5.52,21.8-2.25,27.32,7.32l8.93,15.47c5.52,9.57,2.25,21.8-7.32,27.32-3.15,1.82-6.59,2.68-9.98,2.68Z"/>
        <path class="cls-17" d="M818.47,350.61c-6.91,0-13.63-3.59-17.34-10l-8.93-15.47c-5.52-9.57-2.25-21.8,7.32-27.32,9.57-5.52,21.8-2.25,27.32,7.32l8.93,15.47c5.52,9.57,2.25,21.8-7.32,27.32-3.15,1.82-6.59,2.68-9.98,2.68Z"/>
      </g>
      <g>
        <path class="cls-17" d="M950.97,349.71c-11.05,0-20-8.95-20-20v-29.71c0-11.05,8.95-20,20-20s20,8.95,20,20v29.71c0,11.05-8.95,20-20,20Z"/>
        <path class="cls-17" d="M950.97,349.71c-11.05,0-20-8.95-20-20v-29.71c0-11.05,8.95-20,20-20s20,8.95,20,20v29.71c0,11.05-8.95,20-20,20Z"/>
      </g>
      <g>
        <path class="cls-17" d="M1016.71,362.08c-1.71,0-3.46-.22-5.19-.69-10.67-2.86-17-13.83-14.14-24.49l8.07-30.11c2.86-10.67,13.83-17,24.49-14.14,10.67,2.86,17,13.83,14.14,24.49l-8.07,30.11c-2.39,8.94-10.48,14.83-19.31,14.83Z"/>
        <path class="cls-17" d="M1016.71,362.08c-1.71,0-3.46-.22-5.19-.69-10.67-2.86-17-13.83-14.14-24.49l8.07-30.11c2.86-10.67,13.83-17,24.49-14.14,10.67,2.86,17,13.83,14.14,24.49l-8.07,30.11c-2.39,8.94-10.48,14.83-19.31,14.83Z"/>
      </g>
      <g>
        <path class="cls-17" d="M1076.37,390.14c-3.39,0-6.83-.86-9.98-2.68-9.57-5.52-12.84-17.75-7.32-27.32l14.51-25.14c5.52-9.57,17.75-12.84,27.32-7.32,9.57,5.52,12.84,17.75,7.32,27.32l-14.51,25.14c-3.7,6.42-10.43,10-17.34,10Z"/>
        <path class="cls-17" d="M1076.37,390.14c-3.39,0-6.83-.86-9.98-2.68-9.57-5.52-12.84-17.75-7.32-27.32l14.51-25.14c5.52-9.57,17.75-12.84,27.32-7.32,9.57,5.52,12.84,17.75,7.32,27.32l-14.51,25.14c-3.7,6.42-10.43,10-17.34,10Z"/>
      </g>
      <g>
        <path class="cls-17" d="M885.24,362.08c-8.83,0-16.91-5.89-19.31-14.83l-7.41-27.65c-2.86-10.67,3.47-21.64,14.14-24.49,10.67-2.86,21.64,3.47,24.49,14.14l7.41,27.65c2.86,10.67-3.47,21.64-14.14,24.49-1.73.46-3.48.69-5.19.69Z"/>
        <path class="cls-17" d="M885.24,362.08c-8.83,0-16.91-5.89-19.31-14.83l-7.41-27.65c-2.86-10.67,3.47-21.64,14.14-24.49,10.67-2.86,21.64,3.47,24.49,14.14l7.41,27.65c2.86,10.67-3.47,21.64-14.14,24.49-1.73.46-3.48.69-5.19.69Z"/>
      </g>
      <g>
        <path class="cls-17" d="M827.18,392.29c-6.75,0-13.34-3.42-17.11-9.61l-14.37-23.64c-5.74-9.44-2.74-21.74,6.7-27.48,9.44-5.74,21.74-2.74,27.48,6.7l14.37,23.64c5.74,9.44,2.74,21.74-6.7,27.48-3.25,1.97-6.83,2.91-10.37,2.91Z"/>
        <path class="cls-17" d="M827.18,392.29c-6.75,0-13.34-3.42-17.11-9.61l-14.37-23.64c-5.74-9.44-2.74-21.74,6.7-27.48,9.44-5.74,21.74-2.74,27.48,6.7l14.37,23.64c5.74,9.44,2.74,21.74-6.7,27.48-3.25,1.97-6.83,2.91-10.37,2.91Z"/>
      </g>
    </g>
    <g>
      <g>
        <path class="cls-6" d="M952.93,809.43c-72.65,0-140.96-28.29-192.33-79.67s-79.66-119.68-79.66-192.33,28.29-140.96,79.66-192.33,119.68-79.67,192.33-79.67,140.96,28.29,192.33,79.67c51.37,51.37,79.67,119.68,79.67,192.33s-28.29,140.96-79.67,192.33c-51.37,51.37-119.68,79.67-192.33,79.67Z"/>
        <path class="cls-6" d="M952.93,809.43c-72.65,0-140.96-28.29-192.33-79.67s-79.66-119.68-79.66-192.33,28.29-140.96,79.66-192.33,119.68-79.67,192.33-79.67,140.96,28.29,192.33,79.67c51.37,51.37,79.67,119.68,79.67,192.33s-28.29,140.96-79.67,192.33c-51.37,51.37-119.68,79.67-192.33,79.67Z"/>
      </g>
      <g>
        <path class="cls-6" d="M950.97,802.25c-41.81,0-83.37-10.17-120.2-29.4-35.62-18.6-66.94-45.68-90.55-78.31-6.48-8.95-4.47-21.45,4.48-27.93,8.95-6.48,21.45-4.47,27.93,4.47,41.31,57.08,107.99,91.16,178.35,91.16s141.15-34.93,181.85-91.16c6.48-8.95,18.98-10.95,27.93-4.47,8.95,6.48,10.95,18.98,4.47,27.93-23.5,32.46-55.48,59.57-92.49,78.41-37.67,19.17-79.78,29.3-121.76,29.3Z"/>
        <path class="cls-6" d="M950.97,802.25c-41.81,0-83.37-10.17-120.2-29.4-35.62-18.6-66.94-45.68-90.55-78.31-6.48-8.95-4.47-21.45,4.48-27.93,8.95-6.48,21.45-4.47,27.93,4.47,41.31,57.08,107.99,91.16,178.35,91.16s141.15-34.93,181.85-91.16c6.48-8.95,18.98-10.95,27.93-4.47,8.95,6.48,10.95,18.98,4.47,27.93-23.5,32.46-55.48,59.57-92.49,78.41-37.67,19.17-79.78,29.3-121.76,29.3Z"/>
      </g>
      <g>
        <path class="cls-6" d="M759.98,419.92c-3.84,0-7.73-1.11-11.16-3.41-9.16-6.17-11.58-18.6-5.41-27.76,21.56-32,52.48-59.21,89.42-78.7,37.28-19.66,78.13-30.05,118.14-30.05s83.37,10.16,120.2,29.4c35.62,18.6,66.93,45.68,90.55,78.3,6.48,8.95,4.47,21.45-4.47,27.93-8.95,6.48-21.45,4.47-27.93-4.47-41.31-57.08-107.98-91.15-178.34-91.15s-137.68,36.61-174.38,91.09c-3.86,5.73-10.18,8.83-16.61,8.83Z"/>
        <path class="cls-6" d="M759.98,419.92c-3.84,0-7.73-1.11-11.16-3.41-9.16-6.17-11.58-18.6-5.41-27.76,21.56-32,52.48-59.21,89.42-78.7,37.28-19.66,78.13-30.05,118.14-30.05s83.37,10.16,120.2,29.4c35.62,18.6,66.93,45.68,90.55,78.3,6.48,8.95,4.47,21.45-4.47,27.93-8.95,6.48-21.45,4.47-27.93-4.47-41.31-57.08-107.98-91.15-178.34-91.15s-137.68,36.61-174.38,91.09c-3.86,5.73-10.18,8.83-16.61,8.83Z"/>
      </g>
      <g>
        <path class="cls-6" d="M1166.93,678.3c-3.39,0-6.83-.86-9.98-2.68l-164.8-95.15c-14.63-8.45-23.36-23.57-23.36-40.47s8.73-32.02,23.36-40.47l164.8-95.15c9.57-5.52,21.8-2.25,27.32,7.32,5.52,9.57,2.25,21.8-7.32,27.32l-164.8,95.15c-2.93,1.69-3.36,4.38-3.36,5.83s.44,4.14,3.36,5.83l164.8,95.15c9.57,5.52,12.84,17.75,7.32,27.32-3.7,6.42-10.43,10-17.34,10Z"/>
        <path class="cls-6" d="M1166.93,678.3c-3.39,0-6.83-.86-9.98-2.68l-164.8-95.15c-14.63-8.45-23.36-23.57-23.36-40.47s8.73-32.02,23.36-40.47l164.8-95.15c9.57-5.52,21.8-2.25,27.32,7.32,5.52,9.57,2.25,21.8-7.32,27.32l-164.8,95.15c-2.93,1.69-3.36,4.38-3.36,5.83s.44,4.14,3.36,5.83l164.8,95.15c9.57,5.52,12.84,17.75,7.32,27.32-3.7,6.42-10.43,10-17.34,10Z"/>
      </g>
      <g>
        <path class="cls-6" d="M1191.68,632.45c-2.27,0-4.58-.39-6.84-1.21l-169.53-61.71c-13.65-4.97-22.47-17.56-22.47-32.09s8.82-27.12,22.47-32.09l169.53-61.71c10.38-3.78,21.86,1.57,25.63,11.95,3.78,10.38-1.57,21.86-11.95,25.63l-154.43,56.21,154.43,56.21c10.38,3.78,15.73,15.25,11.95,25.63-2.96,8.12-10.63,13.16-18.8,13.17Z"/>
        <path class="cls-6" d="M1191.68,632.45c-2.27,0-4.58-.39-6.84-1.21l-169.53-61.71c-13.65-4.97-22.47-17.56-22.47-32.09s8.82-27.12,22.47-32.09l169.53-61.71c10.38-3.78,21.86,1.57,25.63,11.95,3.78,10.38-1.57,21.86-11.95,25.63l-154.43,56.21,154.43,56.21c10.38,3.78,15.73,15.25,11.95,25.63-2.96,8.12-10.63,13.16-18.8,13.17Z"/>
      </g>
      <g>
        <path class="cls-6" d="M1198.45,607.37c-1.71,0-3.46-.22-5.19-.69l-146.91-39.37c-13.12-3.52-21.94-15.01-21.94-28.59,0-13.59,8.82-25.08,21.94-28.6l146.91-39.37c10.67-2.86,21.64,3.47,24.5,14.14s-3.47,21.64-14.14,24.49l-109.44,29.32,109.44,29.32c10.67,2.86,17,13.83,14.14,24.5-2.39,8.93-10.48,14.83-19.31,14.83Z"/>
        <path class="cls-6" d="M1198.45,607.37c-1.71,0-3.46-.22-5.19-.69l-146.91-39.37c-13.12-3.52-21.94-15.01-21.94-28.59,0-13.59,8.82-25.08,21.94-28.6l146.91-39.37c10.67-2.86,21.64,3.47,24.5,14.14s-3.47,21.64-14.14,24.49l-109.44,29.32,109.44,29.32c10.67,2.86,17,13.83,14.14,24.5-2.39,8.93-10.48,14.83-19.31,14.83Z"/>
      </g>
      <g>
        <path class="cls-6" d="M736.58,678.3c-6.91,0-13.63-3.59-17.34-10-5.52-9.57-2.25-21.8,7.32-27.32l164.8-95.15c2.93-1.69,3.36-4.38,3.36-5.83s-.44-4.14-3.36-5.83l-164.8-95.15c-9.57-5.52-12.84-17.75-7.32-27.32,5.52-9.57,17.75-12.85,27.32-7.32l164.8,95.15c14.63,8.45,23.36,23.57,23.36,40.47s-8.73,32.02-23.36,40.47l-164.8,95.15c-3.15,1.82-6.59,2.68-9.98,2.68Z"/>
        <path class="cls-6" d="M736.58,678.3c-6.91,0-13.63-3.59-17.34-10-5.52-9.57-2.25-21.8,7.32-27.32l164.8-95.15c2.93-1.69,3.36-4.38,3.36-5.83s-.44-4.14-3.36-5.83l-164.8-95.15c-9.57-5.52-12.84-17.75-7.32-27.32,5.52-9.57,17.75-12.85,27.32-7.32l164.8,95.15c14.63,8.45,23.36,23.57,23.36,40.47s-8.73,32.02-23.36,40.47l-164.8,95.15c-3.15,1.82-6.59,2.68-9.98,2.68Z"/>
      </g>
      <g>
        <path class="cls-6" d="M714.32,635.01c-8.17,0-15.84-5.04-18.8-13.17-3.78-10.38,1.57-21.86,11.95-25.63l154.42-56.21-154.42-56.21c-10.38-3.78-15.73-15.25-11.95-25.63,3.78-10.38,15.26-15.73,25.63-11.95l169.53,61.71c13.65,4.97,22.47,17.56,22.47,32.09s-8.82,27.12-22.47,32.09l-169.53,61.71c-2.26.82-4.57,1.21-6.84,1.21Z"/>
        <path class="cls-6" d="M714.32,635.01c-8.17,0-15.84-5.04-18.8-13.17-3.78-10.38,1.57-21.86,11.95-25.63l154.42-56.21-154.42-56.21c-10.38-3.78-15.73-15.25-11.95-25.63,3.78-10.38,15.26-15.73,25.63-11.95l169.53,61.71c13.65,4.97,22.47,17.56,22.47,32.09s-8.82,27.12-22.47,32.09l-169.53,61.71c-2.26.82-4.57,1.21-6.84,1.21Z"/>
      </g>
      <g>
        <path class="cls-6" d="M707.56,607.36c-8.83,0-16.91-5.89-19.31-14.83-2.86-10.67,3.47-21.64,14.14-24.5l109.44-29.32-109.44-29.32c-10.67-2.86-17-13.83-14.14-24.49s13.83-17,24.49-14.14l146.91,39.37c13.12,3.52,21.94,15.01,21.94,28.59s-8.82,25.08-21.94,28.59l-146.91,39.37c-1.73.46-3.48.69-5.19.69Z"/>
        <path class="cls-6" d="M707.56,607.36c-8.83,0-16.91-5.89-19.31-14.83-2.86-10.67,3.47-21.64,14.14-24.5l109.44-29.32-109.44-29.32c-10.67-2.86-17-13.83-14.14-24.49s13.83-17,24.49-14.14l146.91,39.37c13.12,3.52,21.94,15.01,21.94,28.59s-8.82,25.08-21.94,28.59l-146.91,39.37c-1.73.46-3.48.69-5.19.69Z"/>
      </g>
      <g>
        <path class="cls-6" d="M983.72,270.57h-65.49c-11.05,0-20-8.95-20-20s8.95-20,20-20h65.49c11.05,0,20,8.95,20,20s-8.95,20-20,20Z"/>
        <path class="cls-6" d="M983.72,270.57h-65.49c-11.05,0-20-8.95-20-20s8.95-20,20-20h65.49c11.05,0,20,8.95,20,20s-8.95,20-20,20Z"/>
      </g>
      <g>
        <path class="cls-6" d="M950.97,320c-11.05,0-20-8.95-20-20v-35.85c0-11.05,8.95-20,20-20s20,8.95,20,20v35.85c0,11.05-8.95,20-20,20Z"/>
        <path class="cls-6" d="M950.97,320c-11.05,0-20-8.95-20-20v-35.85c0-11.05,8.95-20,20-20s20,8.95,20,20v35.85c0,11.05-8.95,20-20,20Z"/>
      </g>
      <g>
        <path class="cls-6" d="M950.98,785.08c-51.76,0-101.25-16.12-143.12-46.61-5.4-3.93-8.48-10.3-8.21-16.98.27-6.68,3.86-12.78,9.56-16.26l93.01-56.77c10.99-6.71,17.82-18.88,17.82-31.76v-71.1c0-9.32-5.01-18.01-13.09-22.67l-57.84-33.4c-6.5-3.75-10.35-10.83-9.97-18.33s4.92-14.15,11.77-17.23c8.54-3.84,17.57-5.71,27.61-5.71,13.59,0,26.56,3.47,39.1,6.83,11.51,3.08,22.39,5.99,32.68,5.99s21.2-2.92,32.76-6c12.61-3.37,25.65-6.85,39.29-6.85,10.05,0,19.07,1.86,27.59,5.69,6.85,3.08,11.4,9.73,11.78,17.23.38,7.5-3.47,14.58-9.97,18.33l-57.84,33.39c-8.07,4.66-13.09,13.35-13.09,22.67v69.44c0,13.38,7.23,25.79,18.87,32.38l96.41,54.6c5.85,3.31,9.64,9.34,10.1,16.05s-2.49,13.19-7.83,17.27c-42.75,32.57-93.72,49.79-147.38,49.79Z"/>
        <path class="cls-6" d="M950.98,785.08c-51.76,0-101.25-16.12-143.12-46.61-5.4-3.93-8.48-10.3-8.21-16.98.27-6.68,3.86-12.78,9.56-16.26l93.01-56.77c10.99-6.71,17.82-18.88,17.82-31.76v-71.1c0-9.32-5.01-18.01-13.09-22.67l-57.84-33.4c-6.5-3.75-10.35-10.83-9.97-18.33s4.92-14.15,11.77-17.23c8.54-3.84,17.57-5.71,27.61-5.71,13.59,0,26.56,3.47,39.1,6.83,11.51,3.08,22.39,5.99,32.68,5.99s21.2-2.92,32.76-6c12.61-3.37,25.65-6.85,39.29-6.85,10.05,0,19.07,1.86,27.59,5.69,6.85,3.08,11.4,9.73,11.78,17.23.38,7.5-3.47,14.58-9.97,18.33l-57.84,33.39c-8.07,4.66-13.09,13.35-13.09,22.67v69.44c0,13.38,7.23,25.79,18.87,32.38l96.41,54.6c5.85,3.31,9.64,9.34,10.1,16.05s-2.49,13.19-7.83,17.27c-42.75,32.57-93.72,49.79-147.38,49.79Z"/>
      </g>
      <g>
        <path class="cls-6" d="M818.47,350.61c-6.91,0-13.63-3.59-17.34-10l-8.93-15.47c-5.52-9.57-2.25-21.8,7.32-27.32,9.57-5.52,21.8-2.25,27.32,7.32l8.93,15.47c5.52,9.57,2.25,21.8-7.32,27.32-3.15,1.82-6.59,2.68-9.98,2.68Z"/>
        <path class="cls-6" d="M818.47,350.61c-6.91,0-13.63-3.59-17.34-10l-8.93-15.47c-5.52-9.57-2.25-21.8,7.32-27.32,9.57-5.52,21.8-2.25,27.32,7.32l8.93,15.47c5.52,9.57,2.25,21.8-7.32,27.32-3.15,1.82-6.59,2.68-9.98,2.68Z"/>
      </g>
      <g>
        <path class="cls-6" d="M950.97,349.71c-11.05,0-20-8.95-20-20v-29.71c0-11.05,8.95-20,20-20s20,8.95,20,20v29.71c0,11.05-8.95,20-20,20Z"/>
        <path class="cls-6" d="M950.97,349.71c-11.05,0-20-8.95-20-20v-29.71c0-11.05,8.95-20,20-20s20,8.95,20,20v29.71c0,11.05-8.95,20-20,20Z"/>
      </g>
      <g>
        <path class="cls-6" d="M1016.71,362.08c-1.71,0-3.46-.22-5.19-.69-10.67-2.86-17-13.83-14.14-24.49l8.07-30.11c2.86-10.67,13.83-17,24.49-14.14,10.67,2.86,17,13.83,14.14,24.49l-8.07,30.11c-2.39,8.94-10.48,14.83-19.31,14.83Z"/>
        <path class="cls-6" d="M1016.71,362.08c-1.71,0-3.46-.22-5.19-.69-10.67-2.86-17-13.83-14.14-24.49l8.07-30.11c2.86-10.67,13.83-17,24.49-14.14,10.67,2.86,17,13.83,14.14,24.49l-8.07,30.11c-2.39,8.94-10.48,14.83-19.31,14.83Z"/>
      </g>
      <g>
        <path class="cls-6" d="M1076.37,390.14c-3.39,0-6.83-.86-9.98-2.68-9.57-5.52-12.84-17.75-7.32-27.32l14.51-25.14c5.52-9.57,17.75-12.84,27.32-7.32,9.57,5.52,12.84,17.75,7.32,27.32l-14.51,25.14c-3.7,6.42-10.43,10-17.34,10Z"/>
        <path class="cls-6" d="M1076.37,390.14c-3.39,0-6.83-.86-9.98-2.68-9.57-5.52-12.84-17.75-7.32-27.32l14.51-25.14c5.52-9.57,17.75-12.84,27.32-7.32,9.57,5.52,12.84,17.75,7.32,27.32l-14.51,25.14c-3.7,6.42-10.43,10-17.34,10Z"/>
      </g>
      <g>
        <path class="cls-6" d="M885.24,362.08c-8.83,0-16.91-5.89-19.31-14.83l-7.41-27.65c-2.86-10.67,3.47-21.64,14.14-24.49,10.67-2.86,21.64,3.47,24.49,14.14l7.41,27.65c2.86,10.67-3.47,21.64-14.14,24.49-1.73.46-3.48.69-5.19.69Z"/>
        <path class="cls-6" d="M885.24,362.08c-8.83,0-16.91-5.89-19.31-14.83l-7.41-27.65c-2.86-10.67,3.47-21.64,14.14-24.49,10.67-2.86,21.64,3.47,24.49,14.14l7.41,27.65c2.86,10.67-3.47,21.64-14.14,24.49-1.73.46-3.48.69-5.19.69Z"/>
      </g>
      <g>
        <path class="cls-6" d="M827.18,392.29c-6.75,0-13.34-3.42-17.11-9.61l-14.37-23.64c-5.74-9.44-2.74-21.74,6.7-27.48,9.44-5.74,21.74-2.74,27.48,6.7l14.37,23.64c5.74,9.44,2.74,21.74-6.7,27.48-3.25,1.97-6.83,2.91-10.37,2.91Z"/>
        <path class="cls-6" d="M827.18,392.29c-6.75,0-13.34-3.42-17.11-9.61l-14.37-23.64c-5.74-9.44-2.74-21.74,6.7-27.48,9.44-5.74,21.74-2.74,27.48,6.7l14.37,23.64c5.74,9.44,2.74,21.74-6.7,27.48-3.25,1.97-6.83,2.91-10.37,2.91Z"/>
      </g>
    </g>
  </g>
  <g>
    <path class="cls-8" d="M1149.02,682.82c-43.6,60.24-118,99.43-198.05,99.43s-150.95-39.19-194.55-99.43"/>
    <path class="cls-4" d="M760,399.91c39.91-59.26,115.53-99.91,190.97-99.91,80.05,0,150.94,39.19,194.54,99.43"/>
    <path class="cls-2" d="M1166.94,421.71l-164.8,95.15c-17.82,10.29-17.82,36,0,46.29l164.8,95.15"/>
    <path class="cls-9" d="M1191.68,462.44l-169.53,61.71c-12.41,4.52-12.41,22.07,0,26.59l169.53,61.71"/>
    <path class="cls-9" d="M1198.44,490.08l-146.91,39.37c-9.49,2.54-9.49,16.01,0,18.55l146.91,39.37"/>
    <path class="cls-2" d="M736.56,658.29l164.8-95.15c17.82-10.29,17.82-36,0-46.29l-164.8-95.15"/>
    <path class="cls-9" d="M714.32,615l169.53-61.71c12.41-4.52,12.41-22.07,0-26.59l-169.53-61.71"/>
    <path class="cls-9" d="M707.57,587.36l146.91-39.37c9.49-2.54,9.49-16.01,0-18.55l-146.91-39.37"/>
    <line class="cls-14" x1="918.23" y1="250.57" x2="983.72" y2="250.57"/>
    <line class="cls-4" x1="950.97" y1="264.15" x2="950.97" y2="300"/>
    <path class="cls-16" d="M960.81,614.99v-69.44c0-16.5,8.8-31.74,23.09-39.99l57.84-33.39c-27.9-12.54-58.95,8.92-91.44,8.92s-63.26-21.44-91.18-8.88l57.84,33.4c14.29,8.25,23.09,23.49,23.09,39.99v71.1c0,19.94-10.38,38.44-27.4,48.83l-93.01,56.77c36.98,26.93,82.33,42.78,131.35,42.78s97.59-17,135.26-45.7l-96.41-54.6c-17.93-10.16-29.02-29.17-29.02-49.78Z"/>
    <line class="cls-1" x1="809.52" y1="315.14" x2="818.46" y2="330.61"/>
    <line class="cls-13" x1="950.97" y1="300" x2="950.97" y2="329.71"/>
    <line class="cls-13" x1="1024.76" y1="311.97" x2="1016.7" y2="342.07"/>
    <line class="cls-13" x1="1090.9" y1="345" x2="1076.39" y2="370.13"/>
    <line class="cls-13" x1="877.84" y1="314.42" x2="885.25" y2="342.07"/>
    <line class="cls-13" x1="812.79" y1="348.64" x2="827.16" y2="372.29"/>
  </g>
</svg>